<svg xmlns="http://www.w3.org/2000/svg" xmlns:xlink="http://www.w3.org/1999/xlink" xmlns:lucid="lucid" width="921" height="494.5"><g transform="translate(-279.5 -226)" lucid:page-tab-id="0_0"><path d="M280 306a6 6 0 0 1 6-6h148a6 6 0 0 1 6 6v108a6 6 0 0 1-6 6H286a6 6 0 0 1-6-6z" stroke="#000" stroke-opacity="0" fill="#df91f6"/><path d="M640 287.25a6 6 0 0 1 6-6h548a6 6 0 0 1 6 6V704a6 6 0 0 1-6 6H646a6 6 0 0 1-6-6z" fill-opacity="0"/><path d="M640.9 284.13l.25-.4.6-.72.72-.6.4-.25m1.73-.72l.46-.1.94-.08h1.5m2 0h2.98m2 0h2.98m2 0h2.98m2 0h2.98m2 0h2.98m2 0h3m1.98 0h3m1.98 0h3m1.98 0h3m1.98 0h3m1.98 0h3m2 0h2.98m2 0h2.98m2 0h2.98m2 0h2.98m2 0h2.98m2 0h2.98m2 0h3m1.98 0h3m1.98 0h3m1.98 0h3m2 0h2.98m2 0h2.98m2 0h2.98m2 0h2.98m2 0H777m2 0H782m2 0h3m1.98 0h3m1.98 0h3m1.98 0h3m1.98 0h3m2 0h2.98m2 0h2.98m2 0h2.98m2 0h2.98m2 0h2.98m2 0h2.98m2 0h3m1.98 0h3m1.98 0h3m1.98 0h3m1.98 0h3m2 0h2.98m2 0h2.98m2 0h2.98m2 0h2.98m2 0h2.98m2 0h2.98m2 0h3m1.98 0h3m1.98 0h3m1.98 0h3m1.98 0h3m2 0h2.98m2 0h2.98m2 0h2.98m2 0h2.98m2 0h2.98m2 0h2.98m2 0h3m1.98 0h3m1.98 0h3m1.98 0h3m1.98 0h3m1.98 0h3m2 0h2.98m2 0h2.98m2 0h2.98m2 0h2.98m2 0h2.98m2 0h2.98m2 0h3m1.98 0h3m1.98 0h3m1.98 0h3m2 0h2.98m2 0h2.98m2 0h2.98m2 0h2.98m2 0h2.98m2 0h2.98m2 0h2.98m2 0h3m1.98 0h3m1.98 0h3m1.98 0h3m1.98 0h3m2 0h2.98m2 0h2.98m2 0h2.98m2 0h2.98m2 0h2.98m2 0h3m1.98 0h3m1.98 0h3m1.98 0h3m1.98 0h3m1.98 0h3m2 0h2.98m2 0h2.98m2 0h2.98m2 0h2.98m2 0h2.98m2 0h3m1.98 0h3m1.98 0h3m1.98 0h3m1.98 0h3m2 0h1.48l.94.07.46.1m1.72.73l.4.25.72.6.6.72.26.4m.72 1.73l.1.46.08.95v1.5m0 2v3.03m0 2v3.02m0 2v3.02m0 2v3.02m0 2v3.02m0 2v3.02m0 2v3.02m0 2v3.03m0 2v3.02m0 2v3.02m0 2V344m0 2v3m0 2.02v3m0 2.02v3m0 2.02v3m0 2.02v3m0 2.02v3m0 2.02v3.02m0 2v3.02m0 2v3.02m0 2v3.02m0 2v3.02m0 2v3.02m0 2v3.02m0 2v3.02m0 2v3.03m0 2v3.03m0 2v3.02m0 2v3.02m0 2v3.02m0 2v3m0 2.02v3m0 2.02v3m0 2.02v3m0 2.02v3m0 2.02v3m0 2.02v3.02m0 2v3.02m0 2v3.02m0 2v3.02m0 2v3.02m0 2v3.02m0 2v3.02m0 2v3.02m0 2v3.03m0 2v3.03m0 2v3.02m0 2v3.02m0 2v3.02m0 2v3m0 2.02v3m0 2.02v3m0 2.02v3m0 2.02v3m0 2.02v3.02m0 2v3.02m0 2v3.02m0 2V580m0 2V585m0 2v3.02m0 2v3.02m0 2v3.02m0 2v3.03m0 2v3m0 2v3.03m0 2v3.02m0 2v3.02m0 2v3.02m0 2v3m0 2.02v3m0 2.02v3m0 2.02v3m0 2.02v3m0 2.02v3.02m0 2v3.02m0 2v3.02m0 2v3.02m0 2v3.02m0 2v3.02m0 2v3.02m0 2v3.02m0 2v3.02m0 2V704l-.07.94-.1.46m-.73 1.73l-.25.4-.6.7-.72.62-.4.25m-1.73.72l-.46.1-.94.08h-1.5m-2 0h-2.98m-2 0h-2.98m-2 0h-2.98m-2 0h-2.98m-2 0h-2.98m-2 0h-2.98m-2 0h-3m-1.98 0h-3m-1.98 0h-3m-1.98 0h-3m-2 0h-2.98m-2 0h-2.98m-2 0h-2.98m-2 0h-2.98m-2 0h-2.98m-2 0h-2.98m-2 0h-2.98m-2 0h-3m-1.98 0h-3m-1.98 0h-3m-1.98 0h-3m-2 0h-2.98m-2 0h-2.98m-2 0h-2.98m-2 0h-2.98m-2 0H1063m-2 0H1058m-2 0h-2.98m-2 0h-3m-1.98 0h-3m-1.98 0h-3m-1.98 0h-3m-1.98 0h-3m-2 0h-2.98m-2 0h-2.98m-2 0h-2.98m-2 0h-2.98m-2 0h-2.98m-2 0h-3m-1.98 0h-3m-1.98 0h-3m-1.98 0h-3m-1.98 0h-3m-2 0h-2.98m-2 0h-2.98m-2 0h-2.98m-2 0h-2.98m-2 0h-2.98m-2 0h-2.98m-2 0h-3m-1.98 0h-3m-1.98 0h-3m-1.98 0h-3m-1.98 0h-3m-2 0h-2.98m-2 0h-2.98m-2 0h-2.98m-2 0h-2.98m-2 0h-2.98m-2 0h-2.98m-2 0h-3m-1.98 0h-3m-1.98 0h-3m-1.98 0h-3m-1.98 0h-3m-1.98 0h-3m-2 0h-2.98m-2 0h-2.98m-2 0h-2.98m-2 0h-2.98m-2 0h-2.98m-2 0h-2.98m-2 0h-3m-1.98 0h-3m-1.98 0h-3m-1.98 0h-3m-2 0h-2.98m-2 0h-2.98m-2 0h-2.98m-2 0h-2.98m-2 0H789m-2 0H784m-2 0h-3m-1.98 0h-3m-1.98 0h-3m-1.98 0h-3m-1.98 0h-3m-2 0h-2.98m-2 0h-2.98m-2 0h-2.98m-2 0h-2.98m-2 0h-2.98m-2 0h-2.98m-2 0h-3m-1.98 0h-3m-1.98 0h-3m-1.98 0h-3m-1.98 0h-3m-2 0h-2.98m-2 0h-2.98m-2 0h-2.98m-2 0h-2.98m-2 0h-2.98m-2 0h-2.98m-2 0h-3m-1.98 0h-3m-1.98 0h-3m-1.98 0h-3m-1.98 0h-3m-2 0H646l-.94-.07-.46-.1m-1.73-.73l-.4-.25-.7-.6-.62-.72-.25-.4m-.72-1.73l-.1-.46-.08-.94v-1.5m0-2v-3.03m0-2v-3.02m0-2v-3.02m0-2v-3.02m0-2v-3m0-2.02v-3m0-2.02v-3m0-2.02v-3m0-2.02v-3.02m0-2v-3.02m0-2v-3.02m0-2v-3.02m0-2v-3.02m0-2v-3.02m0-2v-3.02m0-2v-3.02m0-2v-3.02m0-2v-3.03m0-2v-3m0-2v-3.03m0-2v-3.02m0-2v-3.02m0-2V587m0-2v-3m0-2.02v-3m0-2.02v-3m0-2.02v-3.02m0-2v-3.02m0-2v-3.02m0-2v-3.02m0-2v-3.02m0-2v-3.02m0-2v-3.02m0-2v-3.02m0-2v-3.02m0-2v-3.02m0-2v-3.03m0-2v-3m0-2.02v-3m0-2.02v-3m0-2.02v-3m0-2.02v-3m0-2.02v-3m0-2.02v-3m0-2.02v-3m0-2.02v-3.02m0-2v-3.02m0-2v-3.02m0-2v-3.02m0-2v-3.02m0-2v-3.02m0-2v-3.02m0-2v-3.02m0-2v-3.02m0-2v-3.03m0-2v-3.02m0-2v-3m0-2.02v-3m0-2.02v-3m0-2.02v-3m0-2.02v-3m0-2.02v-3m0-2.02v-3m0-2.02v-3.02m0-2v-3.02m0-2v-3.02m0-2v-3.02m0-2v-3.02m0-2v-3.02m0-2V351m0-2V346m0-2v-3.02m0-2v-3.03m0-2v-3.02m0-2v-3.02m0-2v-3m0-2.02v-3m0-2.02v-3m0-2.02v-3m0-2.02v-3m0-2.02v-3m0-2.02v-3m0-2.02v-1.5l.07-.95.1-.45" stroke="#66687e" fill="none"/><path d="M612 232a6 6 0 0 1 6-6h208a6 6 0 0 1 6 6v49.25a6 6 0 0 1-6 6H618a6 6 0 0 1-6-6z" fill="none"/><use xlink:href="#a" transform="matrix(1,0,0,1,612,226) translate(29.173177083333314 38.89930555555556)"/><use xlink:href="#b" transform="matrix(1,0,0,1,612,226) translate(100.2126736111111 38.89930555555556)"/><path d="M960 326a6 6 0 0 1 6-6h148a6 6 0 0 1 6 6v108a6 6 0 0 1-6 6H966a6 6 0 0 1-6-6z" stroke="#000" stroke-opacity="0" fill="#d55c3a" fill-opacity=".88"/><path d="M440.5 360h518.6" stroke="#66687e" fill="none"/><path d="M440.5 360.48h-.5v-.96h.5z" stroke="#66687e" stroke-width=".05" fill="#66687e"/><path d="M941.68 350L959 360l-17.32 10" stroke="#66687e" fill="none"/><path d="M740 486a6 6 0 0 1 6-6h108a6 6 0 0 1 6 6v68a6 6 0 0 1-6 6H746a6 6 0 0 1-6-6z" stroke="#000" stroke-opacity="0" fill="#5361a8" fill-opacity=".88"/><path d="M882.65 402.88h-76.63l-.88.06-.85.2-.8.34-.75.45-.66.56-.57.65-.45.74-.33.8-.2.84-.07.88v71.08h-.96v-71.12l.08-1 .24-.98.4-.94.52-.87.66-.78.77-.66.86-.53.94-.4 1-.23.98-.07h76.67zm76.44 0h-43.35v-.95h43.34z" stroke="#66687e" stroke-width=".05" fill="#66687e"/><path d="M800.48 480h-.96v-.5h.96z" fill="#66687e"/><path stroke="#66687e" stroke-width=".05" fill="#66687e"/><path d="M959.95 402.4l-18.03 10.4-.48-.8 16.6-9.6-16.6-9.6.48-.8z" stroke="#66687e" stroke-width=".05" fill="#66687e"/><use xlink:href="#c" transform="matrix(1,0,0,1,882.6505208333334,394.4442708332678) translate(0 12.6953125)"/><path d="M300 446a6 6 0 0 1 6-6h108a6 6 0 0 1 6 6v68a6 6 0 0 1-6 6H306a6 6 0 0 1-6-6zM300 546a6 6 0 0 1 6-6h108a6 6 0 0 1 6 6v68a6 6 0 0 1-6 6H306a6 6 0 0 1-6-6zM300 646a6 6 0 0 1 6-6h108a6 6 0 0 1 6 6v68a6 6 0 0 1-6 6H306a6 6 0 0 1-6-6z" stroke="#000" stroke-opacity="0" fill="#69c1fa"/><path d="M960 546a6 6 0 0 1 6-6h148a6 6 0 0 1 6 6v108a6 6 0 0 1-6 6H966a6 6 0 0 1-6-6z" stroke="#000" stroke-opacity="0" fill="#e3793d" fill-opacity=".88"/><path d="M1062 334a6 6 0 0 1 6-6h48a6 6 0 0 1 6 6v8a6 6 0 0 1-6 6h-48a6 6 0 0 1-6-6z" fill="none"/><use xlink:href="#d" transform="matrix(1,0,0,1,1062,328) translate(12.252604166666664 14.739583333333332)"/><path d="M1062 554a6 6 0 0 1 6-6h48a6 6 0 0 1 6 6v8a6 6 0 0 1-6 6h-48a6 6 0 0 1-6-6z" fill="none"/><use xlink:href="#e" transform="matrix(1,0,0,1,1062,548) translate(12.591145833333332 14.739583333333332)"/><path d="M1040 440.5v98.6" stroke="#66687e" fill="none"/><path d="M1040.47 440.5h-.94v-.5h.94z" stroke="#66687e" stroke-width=".05" fill="#66687e"/><path d="M1050 521.68L1040 539l-10-17.32" stroke="#66687e" fill="none"/><path d="M555 479.6l1 .24.94.4.87.52.78.66.66.77.53.86.4.94.23 1 .08.98v28l.06.88.2.85.34.8.45.75.56.66.65.57.74.45.8.33.84.2.88.07H668v.96H565.97l-1-.08-.98-.24-.94-.4-.87-.52-.78-.66-.66-.77-.53-.86-.4-.94-.23-1-.08-.98v-28l-.06-.88-.2-.85-.34-.8-.45-.75-.56-.66-.65-.57-.74-.45-.8-.33-.84-.2-.88-.07H420.5v-.96h133.52zm184.1 39.92v.96H700v-.96z" stroke="#66687e" stroke-width=".05" fill="#66687e"/><path d="M420.5 480.48h-.5v-.96h.5z" fill="#66687e"/><path stroke="#66687e" stroke-width=".05" fill="#66687e"/><path d="M739.95 520l-18.03 10.4-.48-.8 16.6-9.6-16.6-9.6.48-.8z" stroke="#66687e" stroke-width=".05" fill="#66687e"/><path d="M668 520.48H566l-.88.06-.85.2-.8.34-.75.45-.66.56-.57.65-.45.74-.33.8-.2.84-.07.88v48l-.08 1-.24.98-.4.94-.52.87-.66.78-.77.66-.86.53-.94.4-1 .23-.98.08H420.5v-.96h133.48l.88-.06.85-.2.8-.34.75-.45.66-.56.57-.65.45-.74.33-.8.2-.84.07-.88v-48l.08-1 .24-.98.4-.94.52-.87.66-.78.77-.66.86-.53.94-.4 1-.23.98-.08h102zm71.1 0H700v-.96h39.1z" stroke="#66687e" stroke-width=".05" fill="#66687e"/><path d="M420.5 580.48h-.5v-.96h.5z" fill="#66687e"/><path stroke="#66687e" stroke-width=".05" fill="#66687e"/><path d="M739.95 520l-18.03 10.4-.48-.8 16.6-9.6-16.6-9.6.48-.8z" stroke="#66687e" stroke-width=".05" fill="#66687e"/><path d="M668 520.48H566l-.88.06-.85.2-.8.34-.75.45-.66.56-.57.65-.45.74-.33.8-.2.84-.07.88v148l-.08 1-.24.98-.4.94-.52.87-.66.78-.77.66-.86.53-.94.4-1 .23-.98.08H420.5v-.96h133.48l.88-.06.85-.2.8-.34.75-.45.66-.56.57-.65.45-.74.33-.8.2-.84.07-.88v-148l.08-1 .24-.98.4-.94.52-.87.66-.78.77-.66.86-.53.94-.4 1-.23.98-.08h102zm71.1 0H700v-.96h39.1z" stroke="#66687e" stroke-width=".05" fill="#66687e"/><path d="M420.5 680.48h-.5v-.96h.5z" fill="#66687e"/><path stroke="#66687e" stroke-width=".05" fill="#66687e"/><path d="M739.95 520l-18.03 10.4-.48-.8 16.6-9.6-16.6-9.6.48-.8z" stroke="#66687e" stroke-width=".05" fill="#66687e"/><use xlink:href="#f" transform="matrix(1,0,0,1,667.9908854166666,512.0442708333334) translate(0 12.6953125)"/><path d="M280 336a6 6 0 0 1 6-6h148a6 6 0 0 1 6 6v48a6 6 0 0 1-6 6H286a6 6 0 0 1-6-6z" fill="none"/><use xlink:href="#g" transform="matrix(1,0,0,1,280,330) translate(23.424479166666664 24.639756944444443)"/><use xlink:href="#h" transform="matrix(1,0,0,1,280,330) translate(82.37630208333333 24.639756944444443)"/><use xlink:href="#i" transform="matrix(1,0,0,1,280,330) translate(49.86762152777778 51.158854166666664)"/><path d="M300 446.26a6 6 0 0 1 6-6h108a6 6 0 0 1 6 6V514a6 6 0 0 1-6 6H306a6 6 0 0 1-6-6z" fill="none"/><use xlink:href="#j" transform="matrix(1,0,0,1,300,440.2579027226429) translate(35.026041666666664 35.71180555555556)"/><use xlink:href="#k" transform="matrix(1,0,0,1,300,440.2579027226429) translate(33.420138888888886 56.927083333333336)"/><path d="M300 546a6 6 0 0 1 6-6h108a6 6 0 0 1 6 6v67.74a6 6 0 0 1-6 6H306a6 6 0 0 1-6-6z" fill="none"/><use xlink:href="#j" transform="matrix(1,0,0,1,300,540) translate(35.026041666666664 35.71180555555556)"/><use xlink:href="#l" transform="matrix(1,0,0,1,300,540) translate(33.420138888888886 56.927083333333336)"/><path d="M300 645.74a6 6 0 0 1 6-6h108a6 6 0 0 1 6 6v67.74a6 6 0 0 1-6 6H306a6 6 0 0 1-6-6z" fill="none"/><use xlink:href="#j" transform="matrix(1,0,0,1,300,639.7420972773571) translate(35.026041666666664 35.71180555555556)"/><use xlink:href="#l" transform="matrix(1,0,0,1,300,639.7420972773571) translate(33.420138888888886 56.927083333333336)"/><path d="M740 486a6 6 0 0 1 6-6h108a6 6 0 0 1 6 6v67.74a6 6 0 0 1-6 6H746a6 6 0 0 1-6-6z" fill="none"/><use xlink:href="#m" transform="matrix(1,0,0,1,740,480) translate(43.52864583333333 35.71180555555556)"/><use xlink:href="#n" transform="matrix(1,0,0,1,740,480) translate(26.545138888888886 56.927083333333336)"/><path d="M980 346.26a6 6 0 0 1 6-6h108a6 6 0 0 1 6 6V414a6 6 0 0 1-6 6H986a6 6 0 0 1-6-6z" fill="none"/><use xlink:href="#o" transform="matrix(1,0,0,1,980,340.25790272264294) translate(3.863932291666657 47.89930555555556)"/><path d="M980 565.74a6 6 0 0 1 6-6h108a6 6 0 0 1 6 6v67.74a6 6 0 0 1-6 6H986a6 6 0 0 1-6-6z" fill="none"/><use xlink:href="#p" transform="matrix(1,0,0,1,980,559.7420972773571) translate(23.199869791666664 47.89930555555556)"/><path d="M397 451.26a6 6 0 0 1 6-6h2a6 6 0 0 1 6 6v6a6 6 0 0 1-6 6h-2a6 6 0 0 1-6-6z" fill="none"/><g><use xlink:href="#q" transform="matrix(1,0,0,1,397,445.2579027226429) translate(0.014322916666666075 13.739583333333332)"/></g><path d="M397 552a6 6 0 0 1 6-6h2a6 6 0 0 1 6 6v6a6 6 0 0 1-6 6h-2a6 6 0 0 1-6-6z" fill="none"/><g><use xlink:href="#r" transform="matrix(1,0,0,1,397,546) translate(-0.802734375 13.739583333333332)"/></g><path d="M397 651a6 6 0 0 1 6-6h2a6 6 0 0 1 6 6v6a6 6 0 0 1-6 6h-2a6 6 0 0 1-6-6z" fill="none"/><g><use xlink:href="#s" transform="matrix(1,0,0,1,397,645) translate(-0.975260416666667 13.739583333333332)"/></g><defs><path fill="#66687e" d="M140 0v-1443h485c428 0 682 267 681 721 0 455-252 722-681 722H140zm180-162h293c328 0 510-201 509-560 0-360-182-559-509-559H320v1119" id="t"/><path fill="#66687e" d="M544 20C254 20 61-190 62-522c0-331 194-538 481-538 288 0 483 207 482 540 0 332-194 540-481 540zm1-154c184 0 303-143 302-388 0-244-120-384-304-384-182 0-304 142-303 386 0 245 121 386 305 386" id="u"/><path fill="#66687e" d="M979-338C953-135 782 19 544 20 249 20 62-190 62-522c0-328 191-538 480-538 262 1 415 173 435 358H807c-25-110-108-203-265-204-181 0-302 150-302 387 0 242 124 385 304 385 145 0 237-83 264-204h171" id="v"/><path fill="#66687e" d="M127 0v-1443h174v862h4l456-459h211L521-591 986 0H784L398-485l-97 93V0H127" id="w"/><path fill="#66687e" d="M974-298C943-118 772 19 541 20 242 20 62-189 62-517c0-322 184-543 468-543 304 1 476 237 457 587H238c4 214 122 339 307 339 136-1 230-68 258-164h171zM529-906c-151 0-269 103-288 297h569c-17-202-129-297-281-297" id="x"/><path fill="#66687e" d="M113 0v-1040h174v176h4c43-141 154-221 312-189v169c-177-43-316 47-316 242V0H113" id="y"/><g id="a"><use transform="matrix(0.010850694444444444,0,0,0.010850694444444444,0,0)" xlink:href="#t"/><use transform="matrix(0.010850694444444444,0,0,0.010850694444444444,15.082465277777777,0)" xlink:href="#u"/><use transform="matrix(0.010850694444444444,0,0,0.010850694444444444,26.87717013888889,0)" xlink:href="#v"/><use transform="matrix(0.010850694444444444,0,0,0.010850694444444444,38.009982638888886,0)" xlink:href="#w"/><use transform="matrix(0.010850694444444444,0,0,0.010850694444444444,48.25303819444444,0)" xlink:href="#x"/><use transform="matrix(0.010850694444444444,0,0,0.010850694444444444,59.635416666666664,0)" xlink:href="#y"/></g><path fill="#66687e" d="M1333-441c-52 282-284 465-590 465C342 24 84-268 84-723c0-454 257-744 659-744 304 0 538 185 590 465h-182c-51-187-196-300-408-299-288 0-474 227-474 579 0 351 187 580 474 580 205 1 347-105 408-299h182" id="z"/><path fill="#66687e" d="M113 0v-1040h174v152h4c47-103 151-172 285-172 142 0 247 73 292 200h4c58-125 180-200 326-200 206 0 339 135 339 342V0h-174v-678c0-143-79-228-216-228-138 0-235 103-235 245V0H738v-697c0-126-84-209-213-209-138 0-238 109-238 254V0H113" id="A"/><path fill="#66687e" d="M113 350v-1390h174v176h4c65-121 181-196 330-196 266 0 442 212 442 541 0 328-178 539-439 539-147 0-268-74-333-194h-4v524H113zm474-484c184 0 298-148 298-386 0-239-114-386-298-386-176 0-301 153-301 387 0 232 126 385 301 385" id="B"/><path fill="#66687e" d="M698-740c-12-106-89-175-221-175-126 0-204 61-204 154 0 71 47 120 162 148l165 40c210 51 286 134 286 283 0 182-172 310-404 310C233 19 85-107 67-300h174c19 111 96 175 242 175 141 0 225-59 225-154 0-75-39-117-157-146l-165-40C190-512 95-603 95-754c0-179 157-306 382-306 233 2 378 135 387 320H698" id="C"/><g id="b"><use transform="matrix(0.010850694444444444,0,0,0.010850694444444444,0,0)" xlink:href="#z"/><use transform="matrix(0.010850694444444444,0,0,0.010850694444444444,15.245225694444445,0)" xlink:href="#u"/><use transform="matrix(0.010850694444444444,0,0,0.010850694444444444,27.03993055555556,0)" xlink:href="#A"/><use transform="matrix(0.010850694444444444,0,0,0.010850694444444444,44.88932291666667,0)" xlink:href="#B"/><use transform="matrix(0.010850694444444444,0,0,0.010850694444444444,57.09635416666667,0)" xlink:href="#u"/><use transform="matrix(0.010850694444444444,0,0,0.010850694444444444,68.89105902777779,0)" xlink:href="#C"/><use transform="matrix(0.010850694444444444,0,0,0.010850694444444444,79.23177083333334,0)" xlink:href="#x"/></g><path fill="#66687e" d="M220-760c-64 0-114-50-114-114s50-114 114-114 114 50 114 114-50 114-114 114zm0 774c-64 0-114-50-114-114s50-114 114-114 114 50 114 114S284 14 220 14" id="D"/><path fill="#66687e" d="M200 0c217-428 438-853 653-1283H76v-160h955v167L389 0H200" id="E"/><path fill="#66687e" d="M620 24C287 24 90-264 91-723c0-458 197-744 529-744 333 0 532 287 531 746 0 458-199 745-531 745zm0-157c220 0 351-227 350-590 0-362-130-586-350-586s-349 225-348 588c0 362 128 588 348 588" id="F"/><g id="c"><use transform="matrix(0.006510416666666667,0,0,0.006510416666666667,0,0)" xlink:href="#D"/><use transform="matrix(0.006510416666666667,0,0,0.006510416666666667,2.8645833333333335,0)" xlink:href="#E"/><use transform="matrix(0.006510416666666667,0,0,0.006510416666666667,10.026041666666668,0)" xlink:href="#F"/><use transform="matrix(0.006510416666666667,0,0,0.006510416666666667,17.8515625,0)" xlink:href="#E"/><use transform="matrix(0.006510416666666667,0,0,0.006510416666666667,25.013020833333336,0)" xlink:href="#F"/></g><path fill="#fff" d="M220-760c-64 0-114-50-114-114s50-114 114-114 114 50 114 114-50 114-114 114zm0 774c-64 0-114-50-114-114s50-114 114-114 114 50 114 114S284 14 220 14" id="G"/><path fill="#fff" d="M317-339c41 125 145 204 298 204 278 0 381-279 384-595h-4c-58 128-206 232-402 232-276 0-480-203-479-479 0-284 216-490 511-490 266 0 549 185 548 721 0 486-207 770-560 770-250 0-435-145-479-363h183zm307-317c189 0 332-134 332-319s-144-332-329-332-331 144-330 328c0 188 137 323 327 323" id="H"/><path fill="#fff" d="M620 24C287 24 90-264 91-723c0-458 197-744 529-744 333 0 532 287 531 746 0 458-199 745-531 745zm0-157c220 0 351-227 350-590 0-362-130-586-350-586s-349 225-348 588c0 362 128 588 348 588" id="I"/><g id="d"><use transform="matrix(0.006510416666666667,0,0,0.006510416666666667,0,0)" xlink:href="#G"/><use transform="matrix(0.006510416666666667,0,0,0.006510416666666667,2.8645833333333335,0)" xlink:href="#H"/><use transform="matrix(0.006510416666666667,0,0,0.006510416666666667,11.093750000000002,0)" xlink:href="#I"/><use transform="matrix(0.006510416666666667,0,0,0.006510416666666667,19.1796875,0)" xlink:href="#H"/><use transform="matrix(0.006510416666666667,0,0,0.006510416666666667,27.408854166666668,0)" xlink:href="#I"/></g><path fill="#fff" d="M121-1065c20-242 206-401 480-402 276 0 457 153 456 374 0 178-126 300-306 338v4c211 18 354 149 353 356 0 241-212 419-501 419-302-1-496-168-511-406h173c11 151 142 249 338 250 190 0 319-106 318-261 0-177-127-276-329-276H411v-152h173c173 0 293-106 292-252 0-151-99-238-275-238-174 1-296 92-307 246H121" id="J"/><g id="e"><use transform="matrix(0.006510416666666667,0,0,0.006510416666666667,0,0)" xlink:href="#G"/><use transform="matrix(0.006510416666666667,0,0,0.006510416666666667,2.8645833333333335,0)" xlink:href="#J"/><use transform="matrix(0.006510416666666667,0,0,0.006510416666666667,10.755208333333334,0)" xlink:href="#I"/><use transform="matrix(0.006510416666666667,0,0,0.006510416666666667,18.841145833333336,0)" xlink:href="#J"/><use transform="matrix(0.006510416666666667,0,0,0.006510416666666667,26.731770833333336,0)" xlink:href="#I"/></g><path fill="#66687e" d="M803 0v-300H78v-163l633-980h266v985h204v158H977V0H803zM256-458h547v-831h-6L256-462v4" id="K"/><path fill="#66687e" d="M121-1065c20-242 206-401 480-402 276 0 457 153 456 374 0 178-126 300-306 338v4c211 18 354 149 353 356 0 241-212 419-501 419-302-1-496-168-511-406h173c11 151 142 249 338 250 190 0 319-106 318-261 0-177-127-276-329-276H411v-152h173c173 0 293-106 292-252 0-151-99-238-275-238-174 1-296 92-307 246H121" id="L"/><path fill="#66687e" d="M485 0v-1252h-4L99-986v-181l384-276h176V0H485" id="M"/><g id="f"><use transform="matrix(0.006510416666666667,0,0,0.006510416666666667,0,0)" xlink:href="#D"/><use transform="matrix(0.006510416666666667,0,0,0.006510416666666667,2.8645833333333335,0)" xlink:href="#K"/><use transform="matrix(0.006510416666666667,0,0,0.006510416666666667,10.924479166666668,0)" xlink:href="#L"/><use transform="matrix(0.006510416666666667,0,0,0.006510416666666667,18.815104166666668,0)" xlink:href="#M"/><use transform="matrix(0.006510416666666667,0,0,0.006510416666666667,24.7265625,0)" xlink:href="#E"/></g><path fill="#fff" d="M557 0L25-1443h189L644-216h4l430-1227h189L735 0H557" id="N"/><path fill="#fff" d="M110-740c12-181 161-318 410-320 246 0 400 133 400 341V0H746v-169h-4C681-55 556 20 417 20 209 20 70-105 71-296c0-177 138-288 377-302l298-17v-87c0-127-83-204-228-204-138 1-222 66-240 166H110zm139 444c-1 102 81 165 207 165 164 0 290-113 290-264v-85l-278 17c-139 8-219 70-219 167" id="O"/><path fill="#fff" d="M113 350v-1390h174v176h4c65-121 181-196 330-196 266 0 442 212 442 541 0 328-178 539-439 539-147 0-268-74-333-194h-4v524H113zm474-484c184 0 298-148 298-386 0-239-114-386-298-386-176 0-301 153-301 387 0 232 126 385 301 385" id="P"/><path fill="#fff" d="M544 20C254 20 61-190 62-522c0-331 194-538 481-538 288 0 483 207 482 540 0 332-194 540-481 540zm1-154c184 0 303-143 302-388 0-244-120-384-304-384-182 0-304 142-303 386 0 245 121 386 305 386" id="Q"/><path fill="#fff" d="M113 0v-1040h174v176h4c43-141 154-221 312-189v169c-177-43-316 47-316 242V0H113" id="R"/><g id="g"><use transform="matrix(0.010850694444444444,0,0,0.010850694444444444,0,0)" xlink:href="#N"/><use transform="matrix(0.010850694444444444,0,0,0.010850694444444444,12.391493055555555,0)" xlink:href="#O"/><use transform="matrix(0.010850694444444444,0,0,0.010850694444444444,23.546006944444443,0)" xlink:href="#P"/><use transform="matrix(0.010850694444444444,0,0,0.010850694444444444,35.75303819444444,0)" xlink:href="#Q"/><use transform="matrix(0.010850694444444444,0,0,0.010850694444444444,47.54774305555556,0)" xlink:href="#R"/></g><path fill="#fff" d="M140 0v-1443h180v624h792v-624h180V0h-180v-657H320V0H140" id="S"/><path fill="#fff" d="M505 0v-1281H50v-162h1090v162H685V0H505" id="T"/><path fill="#fff" d="M140 0v-1443h514c272 0 464 188 463 463 0 274-192 465-463 465H320V0H140zm468-1283H320v608h288c207 0 326-113 325-305 0-190-119-303-325-303" id="U"/><g id="h"><use transform="matrix(0.010850694444444444,0,0,0.010850694444444444,0,0)" xlink:href="#S"/><use transform="matrix(0.010850694444444444,0,0,0.010850694444444444,15.538194444444445,0)" xlink:href="#T"/><use transform="matrix(0.010850694444444444,0,0,0.010850694444444444,28.450520833333336,0)" xlink:href="#T"/><use transform="matrix(0.010850694444444444,0,0,0.010850694444444444,41.36284722222223,0)" xlink:href="#U"/></g><path fill="#fff" d="M939-1053c-18-158-142-247-330-248-193 1-319 93-319 233 0 118 87 192 275 233l160 35c296 65 420 185 420 406 0 256-203 418-533 418C295 23 83-131 70-390h180c16 157 157 246 372 248 208 0 339-94 339-244 0-127-83-198-281-242l-160-35c-282-62-414-189-414-401 1-237 211-403 508-403 287 2 495 166 505 414H939" id="V"/><path fill="#fff" d="M974-298C943-118 772 19 541 20 242 20 62-189 62-517c0-322 184-543 468-543 304 1 476 237 457 587H238c4 214 122 339 307 339 136-1 230-68 258-164h171zM529-906c-151 0-269 103-288 297h569c-17-202-129-297-281-297" id="W"/><path fill="#fff" d="M406 0L23-1040h183l287 855h4l288-855h181L584 0H406" id="X"/><g id="i"><use transform="matrix(0.010850694444444444,0,0,0.010850694444444444,0,0)" xlink:href="#V"/><use transform="matrix(0.010850694444444444,0,0,0.010850694444444444,13.18359375,0)" xlink:href="#W"/><use transform="matrix(0.010850694444444444,0,0,0.010850694444444444,24.56597222222222,0)" xlink:href="#R"/><use transform="matrix(0.010850694444444444,0,0,0.010850694444444444,31.73828125,0)" xlink:href="#X"/><use transform="matrix(0.010850694444444444,0,0,0.010850694444444444,42.03559027777778,0)" xlink:href="#W"/><use transform="matrix(0.010850694444444444,0,0,0.010850694444444444,53.41796875,0)" xlink:href="#R"/></g><path fill="#fff" d="M750 24C339 24 83-264 84-723c0-457 257-744 666-744s665 288 664 746c0 280-95 495-262 621l191 263h-202L1008-21C931 9 844 24 750 24zM269-723c0 413 256 657 634 558L722-413h202l123 169c116-99 182-267 182-479 0-354-185-578-479-578-295 0-481 223-481 578" id="Y"/><path fill="#fff" d="M468 20c-228 0-360-148-360-385v-675h174v644c0 169 79 262 239 262 164 0 271-117 271-294v-612h174V0H792v-148h-4C732-51 626 20 468 20" id="Z"/><g id="j"><use transform="matrix(0.008680555555555556,0,0,0.008680555555555556,0,0)" xlink:href="#Y"/><use transform="matrix(0.008680555555555556,0,0,0.008680555555555556,13.003472222222223,0)" xlink:href="#Z"/><use transform="matrix(0.008680555555555556,0,0,0.008680555555555556,22.369791666666668,0)" xlink:href="#W"/><use transform="matrix(0.008680555555555556,0,0,0.008680555555555556,31.475694444444446,0)" xlink:href="#Z"/><use transform="matrix(0.008680555555555556,0,0,0.008680555555555556,40.84201388888889,0)" xlink:href="#W"/></g><path fill="#fff" d="M438 0L45-1443h188L524-258h4l327-1185h182l327 1185h4l291-1185h188L1454 0h-170L948-1156h-4L608 0H438" id="aa"/><path fill="#fff" d="M127 0v-1443h174v862h4l456-459h211L521-591 986 0H784L398-485l-97 93V0H127" id="ab"/><g id="k"><use transform="matrix(0.008680555555555556,0,0,0.008680555555555556,0,0)" xlink:href="#aa"/><use transform="matrix(0.008680555555555556,0,0,0.008680555555555556,15.46875,0)" xlink:href="#Q"/><use transform="matrix(0.008680555555555556,0,0,0.008680555555555556,24.90451388888889,0)" xlink:href="#R"/><use transform="matrix(0.008680555555555556,0,0,0.008680555555555556,30.381944444444443,0)" xlink:href="#ab"/><use transform="matrix(0.008680555555555556,0,0,0.008680555555555556,38.576388888888886,0)" xlink:href="#W"/><use transform="matrix(0.008680555555555556,0,0,0.008680555555555556,47.682291666666664,0)" xlink:href="#R"/></g><g id="l"><use transform="matrix(0.008680555555555556,0,0,0.008680555555555556,0,0)" xlink:href="#aa"/><use transform="matrix(0.008680555555555556,0,0,0.008680555555555556,15.46875,0)" xlink:href="#Q"/><use transform="matrix(0.008680555555555556,0,0,0.008680555555555556,24.90451388888889,0)" xlink:href="#R"/><use transform="matrix(0.008680555555555556,0,0,0.008680555555555556,30.381944444444443,0)" xlink:href="#ab"/><use transform="matrix(0.008680555555555556,0,0,0.008680555555555556,38.576388888888886,0)" xlink:href="#W"/><use transform="matrix(0.008680555555555556,0,0,0.008680555555555556,47.682291666666664,0)" xlink:href="#R"/></g><path fill="#fff" d="M750 24C339 24 83-264 84-723c0-457 257-744 666-744s665 288 664 746c0 458-255 745-664 745zm0-166c298 0 481-228 480-581 0-354-186-578-480-578-296 0-483 224-482 580 0 355 186 579 482 579" id="ac"/><path fill="#fff" d="M122 0v-1443h174V0H122" id="ad"/><g id="m"><use transform="matrix(0.008680555555555556,0,0,0.008680555555555556,0,0)" xlink:href="#ac"/><use transform="matrix(0.008680555555555556,0,0,0.008680555555555556,12.222222222222223,0)" xlink:href="#T"/><use transform="matrix(0.008680555555555556,0,0,0.008680555555555556,20.208333333333336,0)" xlink:href="#W"/><use transform="matrix(0.008680555555555556,0,0,0.008680555555555556,29.31423611111111,0)" xlink:href="#ad"/></g><path fill="#fff" d="M1333-441c-52 282-284 465-590 465C342 24 84-268 84-723c0-454 257-744 659-744 304 0 538 185 590 465h-182c-51-187-196-300-408-299-288 0-474 227-474 579 0 351 187 580 474 580 205 1 347-105 408-299h182" id="ae"/><path fill="#fff" d="M979-338C953-135 782 19 544 20 249 20 62-190 62-522c0-328 191-538 480-538 262 1 415 173 435 358H807c-25-110-108-203-265-204-181 0-302 150-302 387 0 242 124 385 304 385 145 0 237-83 264-204h171" id="af"/><path fill="#fff" d="M451 20c-191 0-285-86-285-285v-631H14v-144h152v-281h180v281h198v144H346v630c-5 134 82 152 198 138V13c-22 3-59 7-93 7" id="ag"/><g id="n"><use transform="matrix(0.008680555555555556,0,0,0.008680555555555556,0,0)" xlink:href="#ae"/><use transform="matrix(0.008680555555555556,0,0,0.008680555555555556,12.196180555555555,0)" xlink:href="#Q"/><use transform="matrix(0.008680555555555556,0,0,0.008680555555555556,21.631944444444443,0)" xlink:href="#ad"/><use transform="matrix(0.008680555555555556,0,0,0.008680555555555556,25.260416666666664,0)" xlink:href="#ad"/><use transform="matrix(0.008680555555555556,0,0,0.008680555555555556,28.888888888888886,0)" xlink:href="#W"/><use transform="matrix(0.008680555555555556,0,0,0.008680555555555556,37.99479166666666,0)" xlink:href="#af"/><use transform="matrix(0.008680555555555556,0,0,0.008680555555555556,46.901041666666664,0)" xlink:href="#ag"/><use transform="matrix(0.008680555555555556,0,0,0.008680555555555556,51.99652777777778,0)" xlink:href="#Q"/><use transform="matrix(0.008680555555555556,0,0,0.008680555555555556,61.43229166666667,0)" xlink:href="#R"/></g><path fill="#fff" d="M113 0v-1040h174v152h4c47-103 151-172 285-172 142 0 247 73 292 200h4c58-125 180-200 326-200 206 0 339 135 339 342V0h-174v-678c0-143-79-228-216-228-138 0-235 103-235 245V0H738v-697c0-126-84-209-213-209-138 0-238 109-238 254V0H113" id="ah"/><path fill="#fff" d="M122 0v-1443h174v569h4c56-117 169-186 324-186 221 0 372 171 372 423V0H822v-607c0-188-96-299-258-299-161 0-268 122-268 299V0H122" id="ai"/><path fill="#fff" d="M698-740c-12-106-89-175-221-175-126 0-204 61-204 154 0 71 47 120 162 148l165 40c210 51 286 134 286 283 0 182-172 310-404 310C233 19 85-107 67-300h174c19 111 96 175 242 175 141 0 225-59 225-154 0-75-39-117-157-146l-165-40C190-512 95-603 95-754c0-179 157-306 382-306 233 2 378 135 387 320H698" id="aj"/><g id="o"><use transform="matrix(0.010850694444444444,0,0,0.010850694444444444,0,0)" xlink:href="#U"/><use transform="matrix(0.010850694444444444,0,0,0.010850694444444444,12.836371527777777,0)" xlink:href="#R"/><use transform="matrix(0.010850694444444444,0,0,0.010850694444444444,19.140625,0)" xlink:href="#Q"/><use transform="matrix(0.010850694444444444,0,0,0.010850694444444444,30.93532986111111,0)" xlink:href="#ah"/><use transform="matrix(0.010850694444444444,0,0,0.010850694444444444,48.78472222222222,0)" xlink:href="#W"/><use transform="matrix(0.010850694444444444,0,0,0.010850694444444444,60.16710069444444,0)" xlink:href="#ag"/><use transform="matrix(0.010850694444444444,0,0,0.010850694444444444,66.86197916666667,0)" xlink:href="#ai"/><use transform="matrix(0.010850694444444444,0,0,0.010850694444444444,78.84114583333334,0)" xlink:href="#W"/><use transform="matrix(0.010850694444444444,0,0,0.010850694444444444,90.22352430555557,0)" xlink:href="#Z"/><use transform="matrix(0.010850694444444444,0,0,0.010850694444444444,101.93142361111113,0)" xlink:href="#aj"/></g><path fill="#fff" d="M1159-1002c-65-188-207-300-414-299-297 0-477 215-477 572 0 363 183 587 477 587 264-2 442-172 432-434H770v-158h587v137c0 390-227 621-612 621C342 24 84-269 84-730c0-451 258-737 661-737 340 1 539 198 603 465h-189" id="ak"/><path fill="#fff" d="M169 0v-896H24v-144h145v-128c0-200 93-295 285-295 39 0 80 3 106 7v141c-127-19-226 14-219 148v127h214v144H343V0H169" id="al"/><path fill="#fff" d="M113 0v-1040h174v148h4c56-97 162-168 320-168 228 0 360 148 360 385V0H797v-644c0-169-79-262-239-262-164 0-271 117-271 294V0H113" id="am"/><g id="p"><use transform="matrix(0.010850694444444444,0,0,0.010850694444444444,0,0)" xlink:href="#ak"/><use transform="matrix(0.010850694444444444,0,0,0.010850694444444444,15.70095486111111,0)" xlink:href="#R"/><use transform="matrix(0.010850694444444444,0,0,0.010850694444444444,22.330729166666664,0)" xlink:href="#O"/><use transform="matrix(0.010850694444444444,0,0,0.010850694444444444,33.48524305555556,0)" xlink:href="#al"/><use transform="matrix(0.010850694444444444,0,0,0.010850694444444444,39.583333333333336,0)" xlink:href="#O"/><use transform="matrix(0.010850694444444444,0,0,0.010850694444444444,50.73784722222223,0)" xlink:href="#am"/><use transform="matrix(0.010850694444444444,0,0,0.010850694444444444,62.445746527777786,0)" xlink:href="#O"/></g><path fill="#fff" d="M308 0H162l73-391H0l29-146h233l72-383H91l29-146h241l71-377h146l-71 377h335l72-377h146l-71 377h249l-29 146H962l-72 383h256l-29 146H863L790 0H644l71-391H380zm95-533h343l74-391H477" id="an"/><path fill="#fff" d="M485 0v-1252h-4L99-986v-181l384-276h176V0H485" id="ao"/><g id="q"><use transform="matrix(0.006510416666666667,0,0,0.006510416666666667,0,0)" xlink:href="#an"/><use transform="matrix(0.006510416666666667,0,0,0.006510416666666667,8.059895833333334,0)" xlink:href="#ao"/></g><path fill="#fff" d="M117 0v-124l508-530c196-204 240-280 240-403-1-147-112-253-269-253-182 1-316 125-314 284H108c-3-255 214-440 485-441 262 0 453 175 452 403 0 158-73 277-338 548L364-164v4h705V0H117" id="ap"/><g id="r"><use transform="matrix(0.006510416666666667,0,0,0.006510416666666667,0,0)" xlink:href="#an"/><use transform="matrix(0.006510416666666667,0,0,0.006510416666666667,8.059895833333334,0)" xlink:href="#ap"/></g><g id="s"><use transform="matrix(0.006510416666666667,0,0,0.006510416666666667,0,0)" xlink:href="#an"/><use transform="matrix(0.006510416666666667,0,0,0.006510416666666667,8.059895833333334,0)" xlink:href="#J"/></g></defs></g></svg>